# xmcd
#
# Track frame offsets:
# 150
# 4405
# 10722
# 16552
# 21177
# 26021
# 28531
# 33561
# 37443
# 41121
# 44436
# 48254
# 51998
# 56145
# 63671
# 66755
# 67658
# 68561
# 69464
# 70367
# 71270
# 72173
# 73076
# 73979
# 74882
# 75785
# 76688
# 77591
# 78494
# 79397
# 80300
# 81203
# 82106
# 83009
# 83912
# 84815
# 85718
# 86621
# 87524
# 88427
# 89330
# 90233
# 91136
# 92039
# 92942
# 93845
# 94748
# 95651
# 96554
# 97457
# 98360
# 99263
# 100166
# 101069
# 101972
# 102875
# 103778
# 104681
# 105584
# 106487
# 107390
# 108293
# 109196
# 110099
# 111002
# 111905
# 112808
# 113711
# 114614
#
# Disc length: 1706 seconds
#
#
# Revision: 0
# Processed by: cddbd v1.5.1PL0 Copyright (c) Steve Scherf et al.
# Submitted via: FreeRIP 2.91 
#
DISCID=9306a845
DTITLE=Some Girls - All Of My Friends Are Going Death
DYEAR=2004
DGENRE=Noise
TTITLE0=All My Friends Are Going Death
TTITLE1=Gonna Set My Soul On Fire
TTITLE2=Now Only Memories Run On Railway Tracks
TTITLE3=The Rains
TTITLE4=His N' Hers
TTITLE5=Up To Our Hips
TTITLE6=Sex And Glue
TTITLE7=Red Cuts Through Black Hearts
TTITLE8=Some Girls Have All The Fuck
TTITLE9=Queens Without Kings
TTITLE10=Blues Singer
TTITLE11=Aligula
TTITLE12=Pale Pink Vodka Veins
TTITLE13=No Fun
TTITLE14=Up To Our Hips Again
TTITLE15=untitled
TTITLE16=untitled
TTITLE17=untitled
TTITLE18=untitled
TTITLE19=untitled
TTITLE20=untitled
TTITLE21=untitled
TTITLE22=untitled
TTITLE23=untitled
TTITLE24=untitled
TTITLE25=untitled
TTITLE26=untitled
TTITLE27=untitled
TTITLE28=untitled
TTITLE29=untitled
TTITLE30=untitled
TTITLE31=untitled
TTITLE32=untitled
TTITLE33=untitled
TTITLE34=untitled
TTITLE35=untitled
TTITLE36=untitled
TTITLE37=untitled
TTITLE38=untitled
TTITLE39=untitled
TTITLE40=untitled
TTITLE41=untitled
TTITLE42=untitled
TTITLE43=untitled
TTITLE44=untitled
TTITLE45=untitled
TTITLE46=untitled
TTITLE47=untitled
TTITLE48=untitled
TTITLE49=untitled
TTITLE50=untitled
TTITLE51=untitled
TTITLE52=untitled
TTITLE53=untitled
TTITLE54=untitled
TTITLE55=untitled
TTITLE56=untitled
TTITLE57=untitled
TTITLE58=untitled
TTITLE59=untitled
TTITLE60=untitled
TTITLE61=untitled
TTITLE62=untitled
TTITLE63=untitled
TTITLE64=untitled
TTITLE65=untitled
TTITLE66=untitled
TTITLE67=untitled
TTITLE68=Bonus Track
EXTD=
EXTT0=
EXTT1=
EXTT2=
EXTT3=
EXTT4=
EXTT5=
EXTT6=
EXTT7=
EXTT8=
EXTT9=
EXTT10=
EXTT11=
EXTT12=
EXTT13=
EXTT14=
EXTT15=
EXTT16=
EXTT17=
EXTT18=
EXTT19=
EXTT20=
EXTT21=
EXTT22=
EXTT23=
EXTT24=
EXTT25=
EXTT26=
EXTT27=
EXTT28=
EXTT29=
EXTT30=
EXTT31=
EXTT32=
EXTT33=
EXTT34=
EXTT35=
EXTT36=
EXTT37=
EXTT38=
EXTT39=
EXTT40=
EXTT41=
EXTT42=
EXTT43=
EXTT44=
EXTT45=
EXTT46=
EXTT47=
EXTT48=
EXTT49=
EXTT50=
EXTT51=
EXTT52=
EXTT53=
EXTT54=
EXTT55=
EXTT56=
EXTT57=
EXTT58=
EXTT59=
EXTT60=
EXTT61=
EXTT62=
EXTT63=
EXTT64=
EXTT65=
EXTT66=
EXTT67=
EXTT68=
PLAYORDER=
